<?xml version="1.0" standalone="no"?>
<!DOCTYPE svg PUBLIC "-//W3C//DTD SVG 20010904//EN"
 "http://www.w3.org/TR/2001/REC-SVG-20010904/DTD/svg10.dtd">
<svg version="1.0" xmlns="http://www.w3.org/2000/svg"
 width="553.000000pt" height="553.000000pt" viewBox="0 0 553.000000 553.000000"
 preserveAspectRatio="xMidYMid meet">
<metadata>
Created by potrace 1.11, written by Peter Selinger 2001-2013
</metadata>
<g transform="translate(0.000000,553.000000) scale(0.100000,-0.100000)"
fill="#000000" stroke="none">
<path d="M2624 5423 c-192 -110 -1297 -744 -1302 -749 -2 -1 24 -134 58 -294
61 -284 62 -293 44 -310 -11 -10 -206 -144 -434 -297 -228 -154 -469 -317
-535 -362 -66 -44 -193 -131 -283 -191 -89 -61 -161 -114 -159 -118 2 -4 108
-188 236 -410 l232 -402 -180 -369 c-100 -203 -181 -373 -181 -378 0 -4 106
-69 235 -143 144 -83 235 -141 235 -150 0 -8 -9 -89 -19 -180 -10 -91 -15
-169 -11 -174 5 -4 136 -31 292 -58 156 -28 284 -51 285 -52 2 -1 10 -98 18
-216 9 -117 18 -217 21 -222 3 -4 243 -8 533 -8 l528 0 33 -160 c18 -88 34
-159 36 -157 1 1 29 72 62 157 l60 155 228 5 227 5 78 235 c43 129 177 539
298 910 122 371 225 682 229 690 10 16 34 22 1212 271 421 89 768 165 773 168
4 4 -257 110 -580 235 -324 125 -592 231 -596 235 -4 4 176 172 400 373 481
431 459 411 447 415 -8 3 -1017 -150 -1135 -171 l-26 -5 63 196 c61 189 69
207 253 552 104 196 188 358 186 360 -2 2 -38 -16 -80 -39 -42 -23 -79 -40
-81 -37 -2 2 7 36 20 75 14 40 20 72 15 72 -5 0 -135 -100 -288 -223 -201
-162 -304 -238 -375 -276 -54 -30 -101 -49 -106 -45 -4 5 -169 250 -366 544
-197 294 -375 558 -394 587 l-37 51 -169 -95z m1693 -646 l-22 -67 -210 -115
c-115 -63 -205 -111 -200 -106 25 24 449 360 452 357 2 -1 -7 -33 -20 -69z
m95 -85 c-26 -48 -94 -176 -152 -284 -57 -108 -105 -196 -107 -195 -6 6 151
474 163 486 13 14 121 77 136 80 4 0 -14 -39 -40 -87z m-220 -302 c-94 -282
-102 -304 -208 -500 l-110 -205 -74 -12 c-41 -7 -75 -11 -77 -9 -1 1 24 71 56
154 l59 152 -101 147 c-55 82 -100 153 -101 159 -3 29 177 153 408 279 132 73
242 132 243 131 1 -1 -42 -134 -95 -296z m-483 -24 c-19 -19 -84 -66 -90 -66
-24 0 -4 22 39 44 46 25 60 30 51 22z m304 -524 c-44 -132 -49 -142 -76 -148
-16 -3 -31 -4 -34 -1 -3 3 30 71 73 151 42 81 79 145 80 143 2 -2 -18 -67 -43
-145z m1097 14 c0 -2 -189 -173 -420 -380 -360 -323 -424 -376 -443 -370 -32
10 -399 153 -403 157 -2 2 27 97 64 212 l68 210 554 86 c588 92 580 91 580 85z
m-1152 -188 c-3 -7 -33 -98 -68 -203 -34 -104 -64 -191 -65 -192 -3 -5 -125
42 -125 48 0 20 182 345 197 351 30 12 66 9 61 -4z m-185 -172 c-48 -91 -94
-166 -101 -166 -7 0 -26 7 -42 15 l-30 15 21 53 c12 28 35 88 51 132 17 44 35
85 40 90 8 9 138 34 146 29 2 -2 -36 -77 -85 -168z m-3111 -1550 c-2 -74 -66
-642 -73 -650 -8 -9 -449 240 -449 254 0 4 79 169 175 366 l175 358 87 -149
c58 -102 86 -159 85 -179z m2808 242 c0 -3 -150 -465 -450 -1385 l-144 -443
-218 0 c-120 0 -218 1 -218 3 0 1 25 65 56 142 31 77 175 446 320 820 l264
680 71 66 71 66 116 25 c130 29 132 29 132 26z m-305 -78 c-3 -5 -19 -19 -36
-31 l-31 -22 12 24 c7 13 18 27 24 31 16 11 38 10 31 -2z m-2311 -466 c1 -1
50 9 111 21 60 13 111 23 112 21 1 -1 12 -139 23 -307 11 -167 22 -328 26
-356 l5 -53 -253 146 c-139 80 -257 149 -261 154 -7 6 40 506 59 633 l6 39 85
-149 c47 -81 86 -149 87 -149z m1140 -151 c42 -201 73 -370 69 -374 -4 -4
-107 -95 -228 -204 -215 -192 -221 -196 -255 -190 -19 4 -126 59 -237 123
-183 105 -203 119 -203 143 0 14 -9 156 -20 315 -11 159 -21 311 -22 338 l-3
49 385 82 c212 46 397 83 411 84 l25 1 78 -367z m-1113 -396 l247 -142 6 -74
c4 -40 6 -74 4 -76 -4 -2 -562 95 -566 100 -2 1 5 80 15 174 15 145 20 170 33
166 8 -4 126 -70 261 -148z m1294 -474 c-3 -5 -535 91 -534 96 0 4 98 93 217
198 l217 193 51 -243 c28 -133 50 -243 49 -244z m-854 220 c93 -53 167 -98
166 -99 -2 -2 -117 17 -304 51 -31 6 -31 6 -35 75 -2 39 -1 70 1 70 2 0 80
-44 172 -97z m36 -94 c101 -17 192 -39 209 -49 22 -12 35 -15 42 -8 14 14 553
-79 568 -98 6 -8 19 -53 28 -102 10 -48 20 -97 23 -109 l5 -23 -524 0 -525 0
-11 178 c-15 215 -15 242 -2 242 5 0 90 -14 187 -31z"/>
</g>
</svg>
