<?xml version="1.0" standalone="no"?>
<!DOCTYPE svg PUBLIC "-//W3C//DTD SVG 20010904//EN"
 "http://www.w3.org/TR/2001/REC-SVG-20010904/DTD/svg10.dtd">
<svg version="1.0" xmlns="http://www.w3.org/2000/svg"
 width="80.000000pt" height="80.000000pt" viewBox="0 0 80.000000 80.000000"
 preserveAspectRatio="xMidYMid meet">
<metadata>
Created by potrace 1.11, written by Peter Selinger 2001-2013
</metadata>
<g transform="translate(0.000000,80.000000) scale(0.100000,-0.100000)"
fill="#000000" stroke="none">
<path d="M303 785 c-159 -43 -265 -159 -295 -325 -22 -116 23 -252 112 -340
88 -89 224 -134 340 -112 178 33 299 154 332 332 22 115 -23 252 -110 339 -56
56 -107 85 -189 106 -70 18 -121 18 -190 0z m260 -43 c77 -38 148 -111 185
-190 23 -49 27 -70 27 -152 0 -82 -4 -103 -27 -152 -37 -80 -107 -152 -187
-191 -60 -29 -74 -32 -161 -32 -82 0 -103 4 -152 27 -80 37 -152 107 -191 187
-29 60 -32 74 -32 161 0 82 4 103 27 152 47 100 137 180 241 214 26 9 73 13
124 11 67 -3 92 -9 146 -35z"/>
<path d="M190 617 c0 -1 35 -113 78 -247 l78 -245 59 0 59 0 53 170 c29 94 64
205 77 248 l24 77 -63 0 -63 0 -22 -72 c-12 -40 -31 -106 -44 -147 l-22 -73
-43 146 -44 146 -63 0 c-35 0 -64 -1 -64 -3z"/>
</g>
</svg>
